<?xml version="1.0" encoding="utf-8"?>
<!-- Generator: Adobe Illustrator 16.0.0, SVG Export Plug-In . SVG Version: 6.00 Build 0)  -->
<!DOCTYPE svg PUBLIC "-//W3C//DTD SVG 1.1//EN" "http://www.w3.org/Graphics/SVG/1.1/DTD/svg11.dtd">
<svg version="1.1"
	 id="svg2" sodipodi:modified="true" inkscape:export-ydpi="100" inkscape:export-xdpi="100" inkscape:export-filename="/home/hrum/Desktop/carrr/killxl_1.png" inkscape:output_extension="org.inkscape.output.svgz.inkscape" sodipodi:docname="car.svgz" sodipodi:docbase="/home/d/ink/inkscape/share/examples" inkscape:version="0.44+devel" sodipodi:version="0.32" xmlns:dc="http://purl.org/dc/elements/1.1/" xmlns:cc="http://web.resource.org/cc/" xmlns:rdf="http://www.w3.org/1999/02/22-rdf-syntax-ns#" xmlns:svg="http://www.w3.org/2000/svg" xmlns:sodipodi="http://sodipodi.sourceforge.net/DTD/sodipodi-0.dtd" xmlns:inkscape="http://www.inkscape.org/namespaces/inkscape"
	 xmlns="http://www.w3.org/2000/svg" xmlns:xlink="http://www.w3.org/1999/xlink" x="0px" y="0px" width="900px" height="600px"
	 viewBox="0 0 900 600" enable-background="new 0 0 900 600" xml:space="preserve">
<filter  width="1.0735216" height="1.3537166" inkscape:collect="always" y="-0.17685832" x="-0.036760788" id="filter5340">
	<feGaussianBlur  inkscape:collect="always" stdDeviation="2.3900881" id="feGaussianBlur5342"></feGaussianBlur>
</filter>
<filter  width="1.0699209" height="1.2055588" inkscape:collect="always" y="-0.10277939" x="-0.034960445" id="filter4947">
	<feGaussianBlur  inkscape:collect="always" stdDeviation="2.2348114" id="feGaussianBlur4949"></feGaussianBlur>
</filter>
<filter  width="1.2447313" height="1.7919388" inkscape:collect="always" y="-0.39596942" x="-0.12236567" id="filter4893">
	<feGaussianBlur  inkscape:collect="always" stdDeviation="1.7069002" id="feGaussianBlur4895"></feGaussianBlur>
</filter>
<filter  height="1.5" inkscape:collect="always" id="filter4264">
	<feGaussianBlur  inkscape:collect="always" stdDeviation="27.77358491" id="feGaussianBlur4266"></feGaussianBlur>
</filter>
<filter  inkscape:collect="always" id="filter4224">
	<feGaussianBlur  inkscape:collect="always" stdDeviation="2.67857143" id="feGaussianBlur4226"></feGaussianBlur>
</filter>
<g id="layer6" inkscape:groupmode="layer" inkscape:label="background">
	
		<linearGradient id="path4427_1_" gradientUnits="userSpaceOnUse" x1="445.3696" y1="-317.2651" x2="393.369" y2="-462.4725" gradientTransform="matrix(1.6745 -0.0201 0.0056 -1.7424 -208.1951 -176.1642)">
		<stop  offset="0" style="stop-color:#1C1F24"/>
		<stop  offset="1" style="stop-color:#373E48;stop-opacity:0"/>
	</linearGradient>
	<path id="path4427" sodipodi:type="arc" opacity="0.7625" fill="url(#path4427_1_)" enable-background="new    " d="M-405.42,9.874
		l1604.035,62.033l74.16,1243.966l-1604.034-62.034L-405.42,9.874z"/>
	<g id="path3716" sodipodi:nodetypes="cssscssccssscc" opacity="0.9739" filter="url(#filter4264)" enable-background="new    ">
		<path fill="#06060A" d="M164.838,433.188c0,0,40.098,15.946,77.016,28.976c36.918,13.03,168.379,25.314,181.409,25.314
			c13.029,0,59.898,13.19,79.264,9.772c18.459-3.257,36.918-22.802,36.918-22.802s3.258-45.604,33.66-60.806
			c30.403-15.202,99.896-60.806,110.754-62.978s41.261-8.687,41.261-8.687l26.06-15.201c0,0-10.858-26.06-21.716-26.06
			c-10.858,0-47.776-6.515-112.926,4.343c-65.148,10.858-349.632,45.604-377.864,58.634c-28.231,13.03-93.38,43.434-93.38,43.434
			L164.838,433.188z"/>
		<path fill="none" stroke="#000000" d="M164.838,433.188c0,0,40.098,15.946,77.016,28.976
			c36.918,13.03,168.379,25.314,181.409,25.314c13.029,0,59.898,13.19,79.264,9.772c18.459-3.257,36.918-22.802,36.918-22.802
			s3.258-45.604,33.66-60.806c30.403-15.202,99.896-60.806,110.754-62.978s41.261-8.687,41.261-8.687l26.06-15.201
			c0,0-10.858-26.06-21.716-26.06c-10.858,0-47.776-6.515-112.926,4.343c-65.148,10.858-349.632,45.604-377.864,58.634
			c-28.231,13.03-93.38,43.434-93.38,43.434L164.838,433.188z"/>
	</g>
</g>
<g id="layer9" inkscape:groupmode="layer" inkscape:label="highlights">
	<g id="path4167" opacity="0.5696" filter="url(#filter4224)" enable-background="new    ">
		
			<linearGradient id="SVGID_1_" gradientUnits="userSpaceOnUse" x1="356.748" y1="-124.4751" x2="414.4219" y2="-124.4751" gradientTransform="matrix(1 0 0 -1 -248.0449 208.6406)">
			<stop  offset="0" style="stop-color:#FFFFFF"/>
			<stop  offset="1" style="stop-color:#FFFFFF;stop-opacity:0"/>
		</linearGradient>
		<path fill="url(#SVGID_1_)" d="M125.583,322.565c0,0,12.66,5.627,19.693,4.22c7.033-1.406,21.1-2.813,21.1-2.813v8.439h-15.474
			l-8.44,2.813v4.22l-15.473-5.627l12.66,7.033c0,0-7.033,2.814-12.66,2.814c-5.627,0-18.287-2.814-18.287-2.814l9.847-2.813v-4.221
			l-2.813-5.626L125.583,322.565z"/>
	</g>
	<g id="path4171" opacity="0.5261" filter="url(#filter4224)" enable-background="new    ">
		<path fill="#FFFFFF" d="M148.09,349.293c5.626,1.406,7.033,5.626,16.88,5.626s19.694,2.813,19.694,2.813
			s-1.407-4.221-11.254-7.033c-9.847-2.813-15.473-4.221-7.033-4.221s15.474-1.406,7.033-4.22
			c-8.44-2.813-14.066-1.407-14.066-1.407s7.033,9.848-1.407,7.034S146.684,350.699,148.09,349.293z"/>
	</g>
	<g id="path4173" opacity="0.6458" filter="url(#filter4224)" enable-background="new    ">
		<path fill="#FFFFFF" d="M104.483,346.479c0,0,19.693,0,29.54,4.221c9.847,4.22,18.287,8.439,18.287,8.439l-11.253-7.033
			l7.034-2.813l-15.474-1.407l-9.847-4.22l-11.253-1.407L104.483,346.479z"/>
	</g>
	<g id="path4181" opacity="0.3739" filter="url(#filter4224)" enable-background="new    ">
		<path fill="#FFFFFF" d="M148.09,271.925c0,0-14.067,11.253-14.067,15.473c0,4.22,10.55,2.813,16.177,0.704
			c5.627-2.11,33.76-14.771,33.76-14.771s18.287-9.143,23.21-10.55c4.923-1.407,4.22-4.923,1.406-3.517
			c-2.813,1.407-27.43,13.363-31.65,12.66c-4.22-0.704,9.143-7.034,16.177-9.847c7.033-2.813,21.803-9.847,21.803-9.847
			s-8.44,1.407-18.287,5.627c-9.847,4.22-22.507,10.55-25.32,11.253c-2.813,0.703-14.067,0.703-14.067,0.703l5.627-7.737
			L148.09,271.925z"/>
	</g>
	<g id="path4183" opacity="0.6458" filter="url(#filter4224)" enable-background="new    ">
		
			<linearGradient id="SVGID_2_" gradientUnits="userSpaceOnUse" x1="486.8652" y1="-20.437" x2="577.0791" y2="-20.437" gradientTransform="matrix(1 0 0 -1 -248.0449 208.6406)">
			<stop  offset="0" style="stop-color:#FFFFFF"/>
			<stop  offset="1" style="stop-color:#FFFFFF;stop-opacity:0"/>
		</linearGradient>
		<path fill="url(#SVGID_2_)" d="M238.821,248.012c0,0,14.77-7.737,26.023-9.144s25.32-6.33,25.32-6.33s-3.517-1.407,3.517-6.33
			c7.034-4.923,14.77-6.33,17.583-7.033c2.813-0.704,11.254-2.11,11.254-2.11l6.33-4.22c0,0,1.406-4.22-3.517-2.11
			c-4.924,2.11-26.024,6.33-30.244,8.44c-4.22,2.11-7.033,4.22-11.253,7.033c-4.22,2.813-7.033,2.11-10.55,5.627
			c-3.517,3.517-19.694,7.736-23.21,9.847C246.558,243.792,239.524,248.012,238.821,248.012z"/>
	</g>
	<g id="path4185" opacity="0.6458" filter="url(#filter4224)" enable-background="new    ">
		
			<linearGradient id="SVGID_3_" gradientUnits="userSpaceOnUse" x1="544.3975" y1="-18.668" x2="569.1563" y2="-18.668" gradientTransform="matrix(1 0 0 -1 -248.0449 208.6406)">
			<stop  offset="0" style="stop-color:#FFFFFF"/>
			<stop  offset="1" style="stop-color:#FFFFFF;stop-opacity:0"/>
		</linearGradient>
		<path fill="url(#SVGID_3_)" d="M300.715,233.241c-3.517-2.813-7.034-3.517-1.407-7.033c5.627-3.517,14.067-4.923,14.067-4.923
			h7.736c0,0-0.703,6.33-4.22,7.737S301.418,233.945,300.715,233.241z"/>
	</g>
	<g id="path4187" opacity="0.6458" filter="url(#filter4224)" enable-background="new    ">
		
			<linearGradient id="SVGID_4_" gradientUnits="userSpaceOnUse" x1="562.123" y1="-19.6772" x2="579.0029" y2="-19.6772" gradientTransform="matrix(1 0 0 -1 -248.0449 208.6406)">
			<stop  offset="0" style="stop-color:#FFFFFF"/>
			<stop  offset="1" style="stop-color:#FFFFFF;stop-opacity:0"/>
		</linearGradient>
		<path fill="url(#SVGID_4_)" d="M314.078,233.241c6.33-1.406,7.033-0.703,10.55-4.22s6.33-5.627,6.33-5.627l-6.33,2.813
			l-8.439,3.517L314.078,233.241z"/>
	</g>
	<g id="path4189" opacity="0.5292" filter="url(#filter4224)" enable-background="new    ">
		
			<linearGradient id="SVGID_5_" gradientUnits="userSpaceOnUse" x1="579.707" y1="-11.6191" x2="650.04" y2="-11.6191" gradientTransform="matrix(1 0 0 -1 -248.0449 208.6406)">
			<stop  offset="0" style="stop-color:#FFFFFF"/>
			<stop  offset="1" style="stop-color:#FFFFFF;stop-opacity:0"/>
		</linearGradient>
		<path fill="url(#SVGID_5_)" d="M331.662,226.208c8.439-2.813,11.956-2.813,17.583-2.813s11.957-0.703,17.583-1.407
			c5.627-0.703,4.924,0,13.364-1.406c8.439-1.407,21.803-3.517,21.803-3.517s-2.109-2.813-4.923-2.813s-18.99,3.517-26.023,2.813
			c-7.033-0.703-16.881-0.703-16.881-0.703s-7.736,2.11-11.253,3.517S331.662,226.911,331.662,226.208z"/>
	</g>
	<g id="path4191" opacity="0.6458" filter="url(#filter4224)" enable-background="new    ">
		
			<linearGradient id="SVGID_6_" gradientUnits="userSpaceOnUse" x1="576.8936" y1="-7.0176" x2="600.8066" y2="-7.0176" gradientTransform="matrix(1 0 0 -1 -248.0449 208.6406)">
			<stop  offset="0" style="stop-color:#FFFFFF"/>
			<stop  offset="1" style="stop-color:#FFFFFF;stop-opacity:0"/>
		</linearGradient>
		<path fill="url(#SVGID_6_)" d="M328.849,219.175c4.22,0,8.439,0,14.77-2.11c6.33-2.11,9.144-3.517,9.144-3.517l-7.033-1.407
			c0,0-9.144,2.11-11.957,3.517C330.958,217.064,328.849,219.175,328.849,219.175z"/>
	</g>
	<g id="path4193" opacity="0.6458" filter="url(#filter4224)" enable-background="new    ">
		<path fill="#FFFFFF" d="M181.147,229.725c2.813,0,10.55,1.407,16.177,0c5.627-1.407,10.55-5.626,10.55-5.626
			s4.22,0.703,7.033-2.11c2.813-2.813,7.034-7.736,2.813-7.033c-4.22,0.704-12.66,2.813-12.66,2.813l1.407,3.517
			c0,0,0,3.517-4.923,4.22c-4.923,0.703-13.363,2.813-13.363,2.813L181.147,229.725z"/>
	</g>
	<g id="path4196" opacity="0.6458" filter="url(#filter4224)" enable-background="new    ">
		<path fill="#FFFFFF" d="M157.937,237.461c10.55-2.813,16.177-4.923,19.693-7.737s9.847-7.033,9.847-7.033s4.22-2.813-4.22,0.703
			c-8.44,3.517-21.804,7.737-26.024,9.847c-4.22,2.11-14.066,7.034-14.066,7.034L157.937,237.461z"/>
	</g>
	<g id="path4198" sodipodi:nodetypes="cssssssscc" opacity="0.6458" filter="url(#filter4224)" enable-background="new    ">
		<path fill="#FFFFFF" d="M197.324,204.404c0,0,28.837-4.923,49.234-11.957s70.334-16.177,75.257-16.88
			c4.924-0.704,15.474-3.517,9.848,1.406c-5.627,4.923,15.033-4.936,17.847-4.936s21.84-3.648,21.84-6.461
			c0-2.813-36.17,5.771-41.094,6.474c-4.923,0.704-77.367,14.771-88.621,17.583c-11.253,2.813-39.387,10.55-39.387,10.55
			L197.324,204.404z"/>
	</g>
	<g id="path4204" sodipodi:nodetypes="csccscccc" opacity="0.6458" filter="url(#filter4893)" enable-background="new    ">
		<path fill="#FFFFFF" d="M704.432,172.051c2.813,0,2.109,2.813,4.923,0.704s5.627-1.407,5.627-1.407l7.736,4.22
			c0,0,6.33,4.923,1.407,4.22c-4.924-0.703-9.847-3.517-9.847-3.517l-11.254,0.703l-41.69,5.785L704.432,172.051z"/>
	</g>
	<g id="path4206" opacity="0.6458" filter="url(#filter4224)" enable-background="new    ">
		<path fill="#FFFFFF" d="M739.598,158.688l4.924,2.813l2.813,4.923l4.22,1.407l0.703,4.22l2.11,0.704l3.517-3.517l-2.109-3.517
			c0,0-4.221,1.407-4.221-1.406c0-2.813-2.109-4.22-2.109-4.22h-4.221L739.598,158.688z"/>
	</g>
	<g id="path4897" opacity="0.2304" filter="url(#filter4947)" enable-background="new    ">
		<path fill="#FFFFFF" d="M621.302,239.451c2.818-1.973,5.465-4.18,8.09-6.4c3.861-3.554,4.496-5.25,9.847-3.903
			c1.058,4.084-3.792,3.064-3.026,2.899c3.326-1.548,4.443-1.425,8.472-0.728c2.917,1.486-4.847,3.38,2.236-1.272
			c2.695-2.743,6.259-0.971,9.618-0.802c-6.038,0.521,0.671-0.905,2.051-1.208c2.13-0.277,4.166-0.887,6.177-1.621
			c1.777-0.694,3.501-1.484,5.329-2.033c1.896-0.487,3.751-1.107,5.585-1.787c1.856-0.691,3.819-0.957,5.784-1.1
			c1.98-0.069,3.914-0.367,5.822-0.883c1.743-0.593,3.585-0.881,5.211-1.766c1.46-1.521,2.869-2.362,4.946-2.735
			c2.002-0.019,3.936-0.411,5.841-0.993c1.925-0.659,3.908-1.103,5.85-1.708c2.089-0.667,4.136-1.447,6.114-2.394
			c1.718-0.772,3.072-2.062,4.429-3.329c1.705-1.484,3.168-3.199,4.512-5.01c1.979-4.22,4.743,1.175,6.807,1.701
			c0.317,0.011,1.271,0.04,0.954,0.033c-10.015-0.222,10.602,0.135,0.794,0.029c1.913-0.367,3.474-1.63,5.246-2.406
			c1.881-0.665,3.724-1.354,5.275-2.629c0.886-0.884,1.429-2.031,2.092-3.079l3.794,0.215c-0.689,1.075-1.238,2.253-2.118,3.188
			c-1.521,1.372-3.347,2.093-5.272,2.753c-1.849,0.699-3.36,1.975-5.243,2.548c-13.718-0.008,5.873-0.295-9.256-0.195
			c-5.005-2.335,3.876-5.27,0.664-1.921c-1.343,1.81-2.77,3.562-4.432,5.091c-1.416,1.257-2.749,2.649-4.508,3.429
			c-1.973,0.962-4.008,1.776-6.096,2.453c-1.939,0.6-3.912,1.077-5.841,1.705c-1.887,0.638-3.835,1.083-5.839,1.054
			c-2.095,0.275-3.537,0.955-4.937,2.588c-1.568,1.021-3.472,1.265-5.229,1.86c-1.897,0.596-3.851,0.872-5.836,0.965
			c-1.942,0.113-3.903,0.325-5.742,0.998c-1.847,0.659-3.695,1.325-5.597,1.813c-1.859,0.498-3.583,1.316-5.381,1.997
			c-2.002,0.744-4.017,1.455-6.156,1.68c-3.262,0.642-5.965,1.971-9.52,1.253c-5.112-0.55,3.756-1.947-2.212,0.605
			c-2.514,1.695-7.549,4.664-9.716,1.197c6.861-1.151,0.639-0.126-0.888,0.939c-5.212,1.644-5.482,0.283-4.536-3.249
			c7.388-1.872-0.957,1.678-2.514,4.063c-2.577,2.2-5.159,4.4-7.854,6.457L621.302,239.451z"/>
	</g>
	<path id="path4953" opacity="0.4435" fill="#FFFFFF" enable-background="new    " d="M628.74,237.725
		c-0.977,0.329-1.977,0.657-2.969,0.938c-2.503,0.797-4.916,1.797-7.375,2.719c-2.408,0.886-4.828,1.726-7.219,2.656l3.75,0.438
		c2.375-0.889,4.749-1.739,7.125-2.625c2.471-0.942,4.938-1.949,7.469-2.719c1.008-0.267,1.981-0.604,2.969-0.938L628.74,237.725z
		 M611.553,244.569c-1.425,0.231-2.863,0.355-4.281,0.625c-1.976,0.437-3.926,1.018-5.75,1.906c-1.712,0.836-3.4,1.804-5.281,2.219
		c-0.598,0.092-0.858,0.167-1.063,0.219c-1.015,0.026-2.354,0.067-4.469,0.156c-1.951,0.438-3.718,1.134-5.25,2.469
		c-1.666,1.012-3.53,1.659-5.063,2.875c-0.912,0.832-2.799,1.722-3.375,2.25c-0.193-0.034-0.332-0.059-0.531-0.094
		c0.06-0.189-0.809-0.275-1.594-0.25c-2.327-0.389-3.977-0.568-1.031,0.469c0.03,0.03,0.046,0.061,0.094,0.094
		c-2.751-0.32-6.793-3.962-7.969,0.438c-1.643,2.747-3.653,5.317-6.469,6.938c-1.1-0.029-2.854,0.006-5.594,0.156
		c-1.765,0.947-3.383,2.187-5.344,2.719c-1.812,0.399-3.708,0.226-5.438,1c-2.126,0.844-4.268,1.722-6.313,2.75
		c-2.445,1.284-4.786,2.71-7.156,4.125l3.781,0.406c2.301-1.476,4.635-2.898,7.063-4.156c2.087-1.01,4.232-1.851,6.406-2.656
		c1.743-0.728,3.636-0.494,5.438-0.969c1.466-0.489,2.771-1.314,4.094-2.094c1.248,0.093,5.617-0.292,6.719-0.844
		c2.775-1.788,4.802-4.373,6.5-7.156c0.062-0.081,0.104-0.144,0.156-0.219c0.179,0.047,0.345,0.082,0.563,0.125
		c1.759-0.122,3.033-0.225,3.969-0.344c0.288,0.138,0.653,0.289,1.219,0.469c4.564,0.558,5.613-0.353,8.594-2.813
		c1.558-1.151,3.403-1.795,5.031-2.844c1.495-1.369,3.312-1.953,5.25-2.344c5.115-1.186-7.803,1.999,5.563-0.344
		c1.875-0.494,3.544-1.49,5.281-2.313c1.813-0.859,3.731-1.424,5.688-1.844c1.448-0.203,2.9-0.355,4.344-0.594L611.553,244.569z
		 M557.709,265.444c0.186,0.01,0.589,0.022,0.781,0.031c-0.013,0.026-0.041,0.042-0.031,0.063c-0.584,0.096-0.964,0.146-1.313,0.219
		C557.333,265.651,557.52,265.543,557.709,265.444z"/>
	<g id="g5323" transform="translate(-78.38489,-99.39986)" filter="url(#filter5340)">
		<path id="path5309_1_" opacity="0.4304" fill="#FFFFFF" enable-background="new    " d="M281.131,464.297
			c5.117,0.097,10.255-0.333,15.328,0.406c5.301,1.142,10.662,1.708,16.075,1.876c5.056-0.291,9.858,0.845,14.488,2.768
			c4.318,2.291,9.057,3.42,13.896,3.813c19.63,0.709-2.537,0.759,4.377,0.321c33.625-4.14-2.651,6.601,13.05-2.741l10.338,0.833
			c-5.099,5.362-30.653,3.549-10.819,3.435c0.792-0.005-1.585,0.007-2.378,0.01c-8.245,0.717-16.54,0.325-24.772-0.344
			c-4.875-0.564-9.573-1.875-13.97-4.096c-4.628-1.759-9.376-2.665-14.356-2.433c-5.402-0.242-10.74-0.918-16.048-1.963
			c-5.094-0.482-10.208-0.212-15.32-0.284L281.131,464.297z"/>
		<path id="path5317_1_" opacity="0.4304" fill="#FFFFFF" enable-background="new    " d="M363.548,478.72
			c5.114-0.313,9.986,1.289,14.914,2.342c5.715,0.438,10.774,0.873,15.779,3.83c3.465,2.603,11.062,2.357-3.4,1.448l10.212,1.441
			c-8.507,0.228-11.256,2.003-17.033-1.808c-5.019-2.715-10.278-2.805-15.84-3.521c-4.829-1.167-9.674-2.382-14.691-2.14
			L363.548,478.72z"/>
		<path id="path5319_1_" opacity="0.4304" fill="#FFFFFF" enable-background="new    " d="M295.673,462.82
			c5.742-2.35,11.399-1.287,17.754-0.703c2.543,0.234-5.111,0.07-7.659-0.098c-1.616-0.105,3.217-0.366,4.823-0.571
			c1.746-0.401,33.322,6.136,13.119,4.698c6.199-3.055,1.568-1.314,14.843-0.05l-10.264,1.099c9.037-1.316,10.435-2.58,5.646,0.287
			c-2.695,0.165-34.105-1.146-13.144-4.551c-40.909,5.193,0.969-3.023-14.886,1.106L295.673,462.82z"/>
	</g>
</g>
</svg>
